PathFileType	4	(X/Y/Z)	Patient5_TMGait_0pt45_1_right_11.trc.trc
DataRate	CameraRate	NumFrames	NumMarkers	Units	OrigDataRate	OrigDataStartFrame	OrigNumFrames
64.814814814815	64.814814814815	5	32	mm	64.814814814815	89	       141
Frame#	Time	R.ASIS			L.ASIS			Chest			R.Shoulder			Neck			L.Shoulder			L.Elbow			L.Wrist			R.Elbow			R.Wrist			L.Thigh.Superior			L.Thigh.Lateral			L.Thigh.Inferior			L.Patella			L.Shank.Superior			L.Shank.Lateral			L.Shank.Inferior			L.Heel			L.Midfoot.Lateral			L.Midfoot.Superior			L.Toe			R.Thigh.Superior			R.Thigh.Lateral			R.Thigh.Inferior			R.Patella			R.Shank.Superior			R.Shank.Lateral			R.Shank.Inferior			R.Heel			R.Midfoot.Lateral			R.Midfoot.Superior			R.Toe			
		X1	Y1	Z1	X2	Y2	Z2	X3	Y3	Z3	X4	Y4	Z4	X5	Y5	Z5	X6	Y6	Z6	X7	Y7	Z7	X8	Y8	Z8	X9	Y9	Z9	X10	Y10	Z10	X11	Y11	Z11	X12	Y12	Z12	X13	Y13	Z13	X14	Y14	Z14	X15	Y15	Z15	X16	Y16	Z16	X17	Y17	Z17	X18	Y18	Z18	X19	Y19	Z19	X20	Y20	Z20	X21	Y21	Z21	X22	Y22	Z22	X23	Y23	Z23	X24	Y24	Z24	X25	Y25	Z25	X26	Y26	Z26	X27	Y27	Z27	X28	Y28	Z28	X29	Y29	Z29	X30	Y30	Z30	X31	Y31	Z31	X32	Y32	Z32	

89	19.427714285714	1046.847812278491	1019.510041107510	527.723222048795	1098.022995865689	966.399528207678	296.008007406725	1162.080172883937	1447.854551938002	422.692298646840	1026.366501283194	1515.538557548791	558.786602902266	1052.077216964491	1574.831618356682	374.970671860427	1157.616560373905	1517.106519620327	219.510004762320	1140.846814589291	1197.250915605416	76.928528239063	1276.572360186090	946.738883494062	131.512609157577	901.712367797995	1200.984997641419	678.772361095814	1122.506756142900	1012.390196041249	663.576038099251	1113.641502241117	748.849298878749	302.709609410878	1046.448231345497	676.791892303014	256.987700854368	1111.390409891249	622.667143403672	332.895584875562	1112.731597906367	509.080828193833	346.091348176399	1066.550277153489	404.832845726494	364.193649577219	1013.312874297542	332.283219287956	279.186678813109	1033.072268884099	281.647541173076	371.774524249310	901.082436321886	50.078830898852	368.496604143419	991.412066068425	27.151923718621	310.198635926570	1086.971868564740	88.828005400523	358.387539011317	1195.166339599480	44.168716568955	363.651186377043	1085.126682657064	793.734512957532	588.092083450747	998.431120818604	723.110840003791	647.858573850241	1088.812390226728	662.194017480600	596.201538928861	1087.447287102466	563.796671402968	646.106862326731	1020.603221054147	461.781519995895	615.723413196905	918.677881984663	429.308748873551	687.344130727399	961.508270338970	334.327541086000	625.433071614568	786.760841774131	157.740845587362	589.479539505855	831.182675725992	107.662095675137	678.872796289910	954.825350398136	130.479085730661	686.035916209058	1032.727350063416	53.608195086524	709.873739557760	
90	19.443142857143	1044.812612588671	1021.192548093934	526.902884012824	1096.628425465686	966.564411294416	295.733039963498	1160.715790972583	1447.640993900147	421.647645279329	1024.727194849896	1515.531685420290	557.134911716669	1051.200247425841	1574.818150487303	373.478873500919	1157.550314442828	1516.951405755508	218.659199462665	1143.766897359630	1196.722980880097	76.550311233315	1281.028799574189	947.499513134925	133.046924306637	899.187670642483	1201.241470558823	676.907422027643	1119.260896452362	1011.824761149117	661.523954052507	1110.934182281230	748.258161240791	302.517448838688	1043.091544936782	676.756818406304	256.846892363479	1107.521725027136	622.066993256172	332.563574545647	1108.013470029266	508.413383311988	345.730353078470	1061.289912165580	404.460175308416	363.933196014297	1007.618370077661	332.138335844325	279.009062714766	1027.172502067557	281.472563538161	371.625152314933	894.095420320117	49.892167537375	368.654771693298	984.436368733672	27.148343600265	310.195673053144	1079.979912843430	88.751594875103	358.391458277112	1188.192946036551	44.145853571318	363.628226962944	1082.570729267045	795.256219527583	588.471357600703	996.467260207590	724.733878342167	648.205279161840	1087.594655910575	664.642510061913	597.456904051140	1088.171139863966	567.437486929614	648.490800060190	1026.789511245828	463.853096911889	618.078157023734	925.574097895629	427.051922142927	688.353669010559	974.465304035097	333.680716726438	628.412503425777	809.711501942486	147.167140551629	591.561249929525	855.890202636530	100.417258759415	682.242992369220	977.977506042497	130.036705216537	691.028889994982	1059.843534827518	57.761226304450	716.736912813850	
91	19.458571428571	1042.845678350501	1022.723033933541	526.361946133700	1095.014135463336	966.521329538920	295.633296280115	1159.084595788435	1447.314444390807	420.729254255524	1022.818587722091	1515.494809039537	555.528667230346	1050.105424535507	1574.703231523471	372.023479522661	1157.262597172851	1516.567717372398	217.881047421676	1146.428381775959	1195.954198061443	76.353723019235	1285.012294576284	947.939899000244	134.779652829120	896.846158881616	1201.341810641884	675.244222724045	1116.231663932969	1011.149022049849	659.520035926425	1108.193180699183	747.663779361889	302.519178228540	1039.822489297032	676.635872012773	256.867525805092	1103.697347143323	621.503606311221	332.421986023246	1103.340850681553	507.701807246655	345.496873995000	1056.034401224416	404.052662092891	363.738648909334	1001.947808143768	331.967778791885	278.904191418122	1021.299339576169	281.277747676228	371.543844116566	887.112873270549	49.715688629747	368.817234817889	977.464419473447	27.149762031544	310.202729406643	1072.989588778173	88.677702565767	358.407007556406	1181.227171160610	44.124771235971	363.612939672929	1080.203904682022	796.978066991857	589.286883046184	995.100247405236	726.234941019897	648.817569031759	1087.330564238056	667.356088737024	599.080435998628	1090.000009897323	571.187320115921	651.067819383440	1033.892465473541	466.268447907197	620.233169374538	933.627379082861	425.181394515667	689.319340726020	988.033888163899	333.843904193873	630.890837412495	832.894348317474	138.898160676278	593.357557293635	881.014463201067	94.500522624269	684.340894095538	1001.251161811886	130.483632194554	694.170440972833	1086.734559663311	62.702146936916	720.381427752962	
92	19.474000000000	1040.972655607345	1024.091776377210	526.082457248169	1093.209427302640	966.263418587924	295.629369782453	1157.180600709552	1446.924970059920	419.949462588829	1020.613496279455	1515.481892061105	553.976290557891	1048.788903931367	1574.527238599715	370.613943250891	1156.750856509616	1516.001541665313	217.187906815417	1148.796259043920	1194.992678771408	76.351959731979	1288.513801867610	948.108239102034	136.691974496943	894.598891448397	1201.335031853501	673.728682989361	1113.396975690342	1010.481684728337	657.609142217354	1105.380061667465	747.069915187698	302.709690887458	1036.585618914665	676.457700661612	257.022651780681	1099.852564560893	620.963608396441	332.452911328832	1098.627763053820	506.960917282362	345.357161294899	1050.715151376986	403.631960026652	363.579049758719	996.219870237311	331.786561041022	278.853414358319	1015.414080936360	281.073715538371	371.513445516961	880.137176739960	49.593342189162	368.950394097458	970.492345924266	27.158100610290	310.218855653200	1066.001425350067	88.613134227754	358.426696245216	1174.265355098644	44.107679308900	363.601575729325	1078.332632406187	798.986276203516	590.461919790397	994.566110669980	727.636196064160	649.585900189581	1088.215119486555	670.355928427669	600.908992475605	1093.050063082722	575.027976072373	653.618126574122	1041.872944972664	468.991569831857	622.077919927329	942.725191029210	423.824084349360	690.134328606798	1001.964962983918	334.779678905580	632.780793093808	855.739001910688	132.883667926642	594.761972213838	905.947042033829	90.036467795638	685.266745089241	1024.157938718528	131.828099094106	695.677794372651	1112.904631383522	68.309522348268	721.340281896247	
93	19.489428571429	1039.216205216193	1025.290160115134	526.041711268056	1091.244875667773	965.817878497090	295.653711528012	1155.007716922938	1446.522657039180	419.313527513953	1018.102880816630	1515.538876451798	552.493175977902	1047.245900649714	1574.328796596822	369.267629702656	1156.008102890635	1515.308416022193	216.594016337165	1150.837787451831	1193.897638466850	76.558025081117	1291.523098350862	948.061137160743	138.767436314678	892.338104126595	1201.279534140152	672.309846336451	1110.721049970812	1009.958477273041	655.836687576526	1102.463411854465	746.473897315039	303.064645643967	1033.310246862343	676.253374685219	257.275996396015	1095.909894958814	620.420632827445	332.621563803876	1093.785236496056	506.208396544586	345.279100738869	1045.265124781651	403.222015337356	363.429756377725	990.357967827386	331.609954311161	278.842917315749	1009.474299746108	280.870759261785	371.518104558318	873.169524905647	49.558539044638	369.029184882759	963.515620072121	27.175110154973	310.244126846271	1059.014367113313	88.558796069115	358.448857640879	1167.302246514395	44.096472150293	363.590760680094	1077.211212542069	801.328295218902	591.871149869922	995.040589962241	728.958504635488	650.380568404022	1090.346849042906	673.636619859912	602.730895283465	1097.364588563391	578.934431588658	655.888480244112	1050.647671519260	471.955172650164	623.500451559503	952.712648089742	423.045812153268	690.701433854827	1016.021568551376	336.381852302261	634.023973162659	877.782123843817	128.896564277484	595.685371002101	930.107938605407	87.046661852875	685.209939951926	1046.253090599808	134.000914209242	695.889650268568	1137.886394932774	74.390967496401	720.358695881290	
